<mxfile host="app.diagrams.net" modified="2023-10-23T02:37:21.031Z" agent="Mozilla/5.0 (Macintosh; Intel Mac OS X 10_15_7) AppleWebKit/605.1.15 (KHTML, like Gecko) Version/17.0 Safari/605.1.15" etag="v95u8G2bOw7s3gF30W2W" version="22.0.6" type="google">
  <diagram id="0wz5fwHLSvjW-twKBiWH" name="Page-1">
    <mxGraphModel grid="1" page="1" gridSize="10" guides="1" tooltips="1" connect="1" arrows="1" fold="1" pageScale="1" pageWidth="850" pageHeight="1100" math="0" shadow="0">
      <root>
        <mxCell id="0" />
        <mxCell id="1" parent="0" />
        <mxCell id="HQsCND91h7AvUW79KuMm-91" style="edgeStyle=orthogonalEdgeStyle;rounded=0;orthogonalLoop=1;jettySize=auto;html=1;startArrow=classic;startFill=1;entryX=1;entryY=0.5;entryDx=0;entryDy=0;" edge="1" parent="1" source="HQsCND91h7AvUW79KuMm-1" target="HQsCND91h7AvUW79KuMm-89">
          <mxGeometry relative="1" as="geometry">
            <mxPoint x="270" y="-10" as="targetPoint" />
          </mxGeometry>
        </mxCell>
        <mxCell id="HQsCND91h7AvUW79KuMm-1" value="Actor" style="shape=umlActor;verticalLabelPosition=bottom;verticalAlign=top;html=1;outlineConnect=0;noLabel=1;" vertex="1" parent="1">
          <mxGeometry x="340" y="-50" width="30" height="60" as="geometry" />
        </mxCell>
        <mxCell id="q_6GjNC77hbqpQ7vRztW-2" style="edgeStyle=orthogonalEdgeStyle;rounded=0;orthogonalLoop=1;jettySize=auto;html=1;" edge="1" parent="1" source="HQsCND91h7AvUW79KuMm-3" target="q_6GjNC77hbqpQ7vRztW-1">
          <mxGeometry relative="1" as="geometry" />
        </mxCell>
        <mxCell id="i3Vv7ig0gQl0ONpNajDb-2" style="edgeStyle=orthogonalEdgeStyle;rounded=0;orthogonalLoop=1;jettySize=auto;html=1;entryX=0.5;entryY=1;entryDx=0;entryDy=0;" edge="1" parent="1" source="HQsCND91h7AvUW79KuMm-3" target="q_6GjNC77hbqpQ7vRztW-21">
          <mxGeometry relative="1" as="geometry" />
        </mxCell>
        <mxCell id="HQsCND91h7AvUW79KuMm-3" value="Actor" style="shape=umlActor;verticalLabelPosition=bottom;verticalAlign=top;html=1;outlineConnect=0;noLabel=1;" vertex="1" parent="1">
          <mxGeometry x="-145" y="650" width="30" height="60" as="geometry" />
        </mxCell>
        <mxCell id="HQsCND91h7AvUW79KuMm-82" style="edgeStyle=orthogonalEdgeStyle;rounded=0;orthogonalLoop=1;jettySize=auto;html=1;entryX=0;entryY=0.5;entryDx=0;entryDy=0;" edge="1" parent="1" source="HQsCND91h7AvUW79KuMm-4" target="HQsCND91h7AvUW79KuMm-79">
          <mxGeometry relative="1" as="geometry" />
        </mxCell>
        <mxCell id="HQsCND91h7AvUW79KuMm-4" value="Actor" style="shape=umlActor;verticalLabelPosition=bottom;verticalAlign=top;html=1;outlineConnect=0;noLabel=1;" vertex="1" parent="1">
          <mxGeometry x="260" y="510" width="30" height="60" as="geometry" />
        </mxCell>
        <mxCell id="HQsCND91h7AvUW79KuMm-84" style="edgeStyle=orthogonalEdgeStyle;rounded=0;orthogonalLoop=1;jettySize=auto;html=1;entryX=0.5;entryY=1;entryDx=0;entryDy=0;" edge="1" parent="1" source="HQsCND91h7AvUW79KuMm-6" target="HQsCND91h7AvUW79KuMm-83">
          <mxGeometry relative="1" as="geometry" />
        </mxCell>
        <mxCell id="HQsCND91h7AvUW79KuMm-6" value="Actor" style="shape=umlActor;verticalLabelPosition=bottom;verticalAlign=top;html=1;outlineConnect=0;noLabel=1;" vertex="1" parent="1">
          <mxGeometry x="790" y="510" width="30" height="60" as="geometry" />
        </mxCell>
        <mxCell id="HQsCND91h7AvUW79KuMm-7" value="Actor" style="shape=umlActor;verticalLabelPosition=bottom;verticalAlign=top;html=1;outlineConnect=0;noLabel=1;" vertex="1" parent="1">
          <mxGeometry x="590" y="-40" width="30" height="60" as="geometry" />
        </mxCell>
        <mxCell id="HQsCND91h7AvUW79KuMm-27" style="edgeStyle=orthogonalEdgeStyle;rounded=0;orthogonalLoop=1;jettySize=auto;html=1;entryX=0.5;entryY=1;entryDx=0;entryDy=0;" edge="1" parent="1" source="HQsCND91h7AvUW79KuMm-9" target="HQsCND91h7AvUW79KuMm-10">
          <mxGeometry relative="1" as="geometry" />
        </mxCell>
        <mxCell id="HQsCND91h7AvUW79KuMm-9" value="Premium amount and coverage amount" style="rounded=0;whiteSpace=wrap;html=1;" vertex="1" parent="1">
          <mxGeometry x="360" y="240" width="120" height="60" as="geometry" />
        </mxCell>
        <mxCell id="HQsCND91h7AvUW79KuMm-51" style="edgeStyle=orthogonalEdgeStyle;rounded=0;orthogonalLoop=1;jettySize=auto;html=1;entryX=1;entryY=0.5;entryDx=0;entryDy=0;exitX=0.5;exitY=0;exitDx=0;exitDy=0;" edge="1" parent="1" source="HQsCND91h7AvUW79KuMm-10" target="HQsCND91h7AvUW79KuMm-34">
          <mxGeometry relative="1" as="geometry" />
        </mxCell>
        <mxCell id="HQsCND91h7AvUW79KuMm-10" value="&amp;nbsp;Coverage amount plus premium amount minus platform fee" style="rounded=0;whiteSpace=wrap;html=1;" vertex="1" parent="1">
          <mxGeometry x="360" y="120" width="120" height="70" as="geometry" />
        </mxCell>
        <mxCell id="HQsCND91h7AvUW79KuMm-47" style="edgeStyle=orthogonalEdgeStyle;rounded=0;orthogonalLoop=1;jettySize=auto;html=1;entryX=0.5;entryY=1;entryDx=0;entryDy=0;" edge="1" parent="1" source="HQsCND91h7AvUW79KuMm-12" target="HQsCND91h7AvUW79KuMm-13">
          <mxGeometry relative="1" as="geometry" />
        </mxCell>
        <mxCell id="HQsCND91h7AvUW79KuMm-12" value="Premium amount and coverage amount" style="rounded=0;whiteSpace=wrap;html=1;" vertex="1" parent="1">
          <mxGeometry x="590" y="280" width="120" height="60" as="geometry" />
        </mxCell>
        <mxCell id="HQsCND91h7AvUW79KuMm-48" style="edgeStyle=orthogonalEdgeStyle;rounded=0;orthogonalLoop=1;jettySize=auto;html=1;entryX=0;entryY=0.5;entryDx=0;entryDy=0;" edge="1" parent="1" source="HQsCND91h7AvUW79KuMm-13" target="HQsCND91h7AvUW79KuMm-49">
          <mxGeometry relative="1" as="geometry">
            <mxPoint x="650" y="140" as="targetPoint" />
            <Array as="points">
              <mxPoint x="650" y="90" />
            </Array>
          </mxGeometry>
        </mxCell>
        <mxCell id="HQsCND91h7AvUW79KuMm-13" value="&amp;nbsp;Coverage amount plus premium amount minus platform fee" style="rounded=0;whiteSpace=wrap;html=1;" vertex="1" parent="1">
          <mxGeometry x="590" y="170" width="120" height="70" as="geometry" />
        </mxCell>
        <mxCell id="HQsCND91h7AvUW79KuMm-23" style="edgeStyle=orthogonalEdgeStyle;rounded=0;orthogonalLoop=1;jettySize=auto;html=1;exitX=0.5;exitY=0;exitDx=0;exitDy=0;entryX=0.5;entryY=1;entryDx=0;entryDy=0;" edge="1" parent="1" source="HQsCND91h7AvUW79KuMm-15" target="HQsCND91h7AvUW79KuMm-16">
          <mxGeometry relative="1" as="geometry" />
        </mxCell>
        <mxCell id="HQsCND91h7AvUW79KuMm-15" value="Premium amount and coverage amount" style="rounded=0;whiteSpace=wrap;html=1;" vertex="1" parent="1">
          <mxGeometry x="50" y="240" width="120" height="60" as="geometry" />
        </mxCell>
        <mxCell id="HQsCND91h7AvUW79KuMm-36" style="edgeStyle=orthogonalEdgeStyle;rounded=0;orthogonalLoop=1;jettySize=auto;html=1;" edge="1" parent="1" source="HQsCND91h7AvUW79KuMm-16" target="HQsCND91h7AvUW79KuMm-34">
          <mxGeometry relative="1" as="geometry" />
        </mxCell>
        <mxCell id="HQsCND91h7AvUW79KuMm-16" value="&amp;nbsp;Coverage amount plus premium amount minus platform fee" style="rounded=0;whiteSpace=wrap;html=1;" vertex="1" parent="1">
          <mxGeometry x="50" y="150" width="120" height="70" as="geometry" />
        </mxCell>
        <mxCell id="HQsCND91h7AvUW79KuMm-19" value="Insurer 2" style="text;html=1;strokeColor=none;fillColor=none;align=center;verticalAlign=middle;whiteSpace=wrap;rounded=0;" vertex="1" parent="1">
          <mxGeometry x="575" y="40" width="60" height="30" as="geometry" />
        </mxCell>
        <mxCell id="HQsCND91h7AvUW79KuMm-21" value="Insured 2" style="text;html=1;strokeColor=none;fillColor=none;align=center;verticalAlign=middle;whiteSpace=wrap;rounded=0;" vertex="1" parent="1">
          <mxGeometry x="245" y="580" width="60" height="30" as="geometry" />
        </mxCell>
        <mxCell id="HQsCND91h7AvUW79KuMm-33" style="edgeStyle=orthogonalEdgeStyle;rounded=0;orthogonalLoop=1;jettySize=auto;html=1;entryX=0;entryY=0.5;entryDx=0;entryDy=0;" edge="1" parent="1" source="HQsCND91h7AvUW79KuMm-30" target="HQsCND91h7AvUW79KuMm-15">
          <mxGeometry relative="1" as="geometry" />
        </mxCell>
        <mxCell id="HQsCND91h7AvUW79KuMm-30" value="Coverage amount in escrow" style="rounded=0;whiteSpace=wrap;html=1;" vertex="1" parent="1">
          <mxGeometry x="-215" y="230" width="120" height="80" as="geometry" />
        </mxCell>
        <mxCell id="i3Vv7ig0gQl0ONpNajDb-1" style="edgeStyle=orthogonalEdgeStyle;rounded=0;orthogonalLoop=1;jettySize=auto;html=1;entryX=0;entryY=0.5;entryDx=0;entryDy=0;exitX=0.5;exitY=1;exitDx=0;exitDy=0;" edge="1" parent="1" source="HQsCND91h7AvUW79KuMm-31" target="HQsCND91h7AvUW79KuMm-60">
          <mxGeometry relative="1" as="geometry" />
        </mxCell>
        <mxCell id="HQsCND91h7AvUW79KuMm-31" value="Fraudulent Insured coverage amount" style="rounded=0;whiteSpace=wrap;html=1;" vertex="1" parent="1">
          <mxGeometry x="-450" y="460" width="160" height="80" as="geometry" />
        </mxCell>
        <mxCell id="HQsCND91h7AvUW79KuMm-76" style="edgeStyle=orthogonalEdgeStyle;rounded=0;orthogonalLoop=1;jettySize=auto;html=1;" edge="1" parent="1" source="HQsCND91h7AvUW79KuMm-34" target="HQsCND91h7AvUW79KuMm-30">
          <mxGeometry relative="1" as="geometry" />
        </mxCell>
        <mxCell id="HQsCND91h7AvUW79KuMm-77" style="edgeStyle=orthogonalEdgeStyle;rounded=0;orthogonalLoop=1;jettySize=auto;html=1;exitX=1;exitY=0.75;exitDx=0;exitDy=0;" edge="1" parent="1" source="HQsCND91h7AvUW79KuMm-34" target="HQsCND91h7AvUW79KuMm-38">
          <mxGeometry relative="1" as="geometry">
            <Array as="points">
              <mxPoint x="170" y="110" />
              <mxPoint x="270" y="110" />
            </Array>
          </mxGeometry>
        </mxCell>
        <mxCell id="HQsCND91h7AvUW79KuMm-95" style="edgeStyle=orthogonalEdgeStyle;rounded=0;orthogonalLoop=1;jettySize=auto;html=1;entryX=0.5;entryY=1;entryDx=0;entryDy=0;startArrow=classic;startFill=1;" edge="1" parent="1" source="HQsCND91h7AvUW79KuMm-34" target="HQsCND91h7AvUW79KuMm-89">
          <mxGeometry relative="1" as="geometry" />
        </mxCell>
        <mxCell id="HQsCND91h7AvUW79KuMm-34" value="Insurer account value" style="rounded=0;whiteSpace=wrap;html=1;" vertex="1" parent="1">
          <mxGeometry x="50" y="60" width="120" height="70" as="geometry" />
        </mxCell>
        <mxCell id="HQsCND91h7AvUW79KuMm-40" style="edgeStyle=orthogonalEdgeStyle;rounded=0;orthogonalLoop=1;jettySize=auto;html=1;entryX=0;entryY=0.5;entryDx=0;entryDy=0;" edge="1" parent="1" source="HQsCND91h7AvUW79KuMm-38" target="HQsCND91h7AvUW79KuMm-9">
          <mxGeometry relative="1" as="geometry" />
        </mxCell>
        <mxCell id="HQsCND91h7AvUW79KuMm-38" value="Coverage amount in escrow" style="rounded=0;whiteSpace=wrap;html=1;" vertex="1" parent="1">
          <mxGeometry x="210" y="230" width="120" height="80" as="geometry" />
        </mxCell>
        <mxCell id="HQsCND91h7AvUW79KuMm-41" style="edgeStyle=orthogonalEdgeStyle;rounded=0;orthogonalLoop=1;jettySize=auto;html=1;entryX=0.5;entryY=1;entryDx=0;entryDy=0;" edge="1" parent="1" source="HQsCND91h7AvUW79KuMm-39" target="HQsCND91h7AvUW79KuMm-9">
          <mxGeometry relative="1" as="geometry" />
        </mxCell>
        <mxCell id="HQsCND91h7AvUW79KuMm-39" value="Premium amount in escrow" style="rounded=0;whiteSpace=wrap;html=1;" vertex="1" parent="1">
          <mxGeometry x="210" y="320" width="120" height="80" as="geometry" />
        </mxCell>
        <mxCell id="HQsCND91h7AvUW79KuMm-45" style="edgeStyle=orthogonalEdgeStyle;rounded=0;orthogonalLoop=1;jettySize=auto;html=1;entryX=1;entryY=0.5;entryDx=0;entryDy=0;" edge="1" parent="1" source="HQsCND91h7AvUW79KuMm-43" target="HQsCND91h7AvUW79KuMm-12">
          <mxGeometry relative="1" as="geometry" />
        </mxCell>
        <mxCell id="HQsCND91h7AvUW79KuMm-43" value="Coverage amount in escrow" style="rounded=0;whiteSpace=wrap;html=1;" vertex="1" parent="1">
          <mxGeometry x="750" y="240" width="120" height="70" as="geometry" />
        </mxCell>
        <mxCell id="HQsCND91h7AvUW79KuMm-46" style="edgeStyle=orthogonalEdgeStyle;rounded=0;orthogonalLoop=1;jettySize=auto;html=1;" edge="1" parent="1" source="HQsCND91h7AvUW79KuMm-44" target="HQsCND91h7AvUW79KuMm-12">
          <mxGeometry relative="1" as="geometry" />
        </mxCell>
        <mxCell id="HQsCND91h7AvUW79KuMm-44" value="Premium amount in escrow" style="rounded=0;whiteSpace=wrap;html=1;" vertex="1" parent="1">
          <mxGeometry x="750" y="320" width="120" height="80" as="geometry" />
        </mxCell>
        <mxCell id="HQsCND91h7AvUW79KuMm-75" style="edgeStyle=orthogonalEdgeStyle;rounded=0;orthogonalLoop=1;jettySize=auto;html=1;exitX=1;exitY=0.5;exitDx=0;exitDy=0;entryX=0.592;entryY=0;entryDx=0;entryDy=0;entryPerimeter=0;" edge="1" parent="1" source="HQsCND91h7AvUW79KuMm-49" target="HQsCND91h7AvUW79KuMm-43">
          <mxGeometry relative="1" as="geometry" />
        </mxCell>
        <mxCell id="HQsCND91h7AvUW79KuMm-87" style="edgeStyle=orthogonalEdgeStyle;rounded=0;orthogonalLoop=1;jettySize=auto;html=1;entryX=0.5;entryY=1;entryDx=0;entryDy=0;startArrow=classic;startFill=1;" edge="1" parent="1" source="HQsCND91h7AvUW79KuMm-49" target="HQsCND91h7AvUW79KuMm-86">
          <mxGeometry relative="1" as="geometry" />
        </mxCell>
        <mxCell id="HQsCND91h7AvUW79KuMm-49" value="Insurer account value" style="rounded=0;whiteSpace=wrap;html=1;" vertex="1" parent="1">
          <mxGeometry x="670" y="50" width="120" height="80" as="geometry" />
        </mxCell>
        <mxCell id="HQsCND91h7AvUW79KuMm-71" style="edgeStyle=orthogonalEdgeStyle;rounded=0;orthogonalLoop=1;jettySize=auto;html=1;entryX=0.5;entryY=1;entryDx=0;entryDy=0;" edge="1" parent="1" source="HQsCND91h7AvUW79KuMm-60" target="mV3ph0aQkJncVPJ9E7mC-1">
          <mxGeometry relative="1" as="geometry" />
        </mxCell>
        <mxCell id="HQsCND91h7AvUW79KuMm-60" value="Insured account value" style="rounded=0;whiteSpace=wrap;html=1;" vertex="1" parent="1">
          <mxGeometry x="-240" y="560" width="170" height="60" as="geometry" />
        </mxCell>
        <mxCell id="HQsCND91h7AvUW79KuMm-72" style="edgeStyle=orthogonalEdgeStyle;rounded=0;orthogonalLoop=1;jettySize=auto;html=1;" edge="1" parent="1" source="HQsCND91h7AvUW79KuMm-61" target="HQsCND91h7AvUW79KuMm-39">
          <mxGeometry relative="1" as="geometry" />
        </mxCell>
        <mxCell id="HQsCND91h7AvUW79KuMm-61" value="Insured account value" style="rounded=0;whiteSpace=wrap;html=1;" vertex="1" parent="1">
          <mxGeometry x="210" y="420" width="120" height="80" as="geometry" />
        </mxCell>
        <mxCell id="HQsCND91h7AvUW79KuMm-65" style="edgeStyle=orthogonalEdgeStyle;rounded=0;orthogonalLoop=1;jettySize=auto;html=1;entryX=0.5;entryY=1;entryDx=0;entryDy=0;" edge="1" parent="1" source="HQsCND91h7AvUW79KuMm-62" target="HQsCND91h7AvUW79KuMm-44">
          <mxGeometry relative="1" as="geometry" />
        </mxCell>
        <mxCell id="HQsCND91h7AvUW79KuMm-62" value="Insured account value" style="rounded=0;whiteSpace=wrap;html=1;" vertex="1" parent="1">
          <mxGeometry x="750" y="420" width="120" height="80" as="geometry" />
        </mxCell>
        <mxCell id="HQsCND91h7AvUW79KuMm-67" value="Insured 3" style="text;html=1;strokeColor=none;fillColor=none;align=center;verticalAlign=middle;whiteSpace=wrap;rounded=0;" vertex="1" parent="1">
          <mxGeometry x="775" y="580" width="60" height="30" as="geometry" />
        </mxCell>
        <mxCell id="HQsCND91h7AvUW79KuMm-69" value="Insurer 1" style="text;html=1;strokeColor=none;fillColor=none;align=center;verticalAlign=middle;whiteSpace=wrap;rounded=0;" vertex="1" parent="1">
          <mxGeometry x="325" y="30" width="60" height="30" as="geometry" />
        </mxCell>
        <mxCell id="HQsCND91h7AvUW79KuMm-70" value="Insured 1 that claimed that the money used for the policy wasn&#39;t them" style="text;html=1;strokeColor=none;fillColor=none;align=center;verticalAlign=middle;whiteSpace=wrap;rounded=0;" vertex="1" parent="1">
          <mxGeometry x="-187.5" y="720" width="115" height="80" as="geometry" />
        </mxCell>
        <mxCell id="HQsCND91h7AvUW79KuMm-81" style="edgeStyle=orthogonalEdgeStyle;rounded=0;orthogonalLoop=1;jettySize=auto;html=1;entryX=1;entryY=0.5;entryDx=0;entryDy=0;" edge="1" parent="1" source="HQsCND91h7AvUW79KuMm-79" target="HQsCND91h7AvUW79KuMm-61">
          <mxGeometry relative="1" as="geometry">
            <Array as="points">
              <mxPoint x="390" y="460" />
            </Array>
          </mxGeometry>
        </mxCell>
        <mxCell id="HQsCND91h7AvUW79KuMm-79" value="Payment processor" style="rounded=0;whiteSpace=wrap;html=1;" vertex="1" parent="1">
          <mxGeometry x="350" y="510" width="120" height="60" as="geometry" />
        </mxCell>
        <mxCell id="HQsCND91h7AvUW79KuMm-100" style="edgeStyle=orthogonalEdgeStyle;rounded=0;orthogonalLoop=1;jettySize=auto;html=1;exitX=1;exitY=0.5;exitDx=0;exitDy=0;entryX=0;entryY=0.5;entryDx=0;entryDy=0;" edge="1" parent="1" source="HQsCND91h7AvUW79KuMm-83" target="HQsCND91h7AvUW79KuMm-62">
          <mxGeometry relative="1" as="geometry" />
        </mxCell>
        <mxCell id="HQsCND91h7AvUW79KuMm-83" value="Payment processor" style="rounded=0;whiteSpace=wrap;html=1;" vertex="1" parent="1">
          <mxGeometry x="600" y="430" width="120" height="60" as="geometry" />
        </mxCell>
        <mxCell id="HQsCND91h7AvUW79KuMm-88" style="edgeStyle=orthogonalEdgeStyle;rounded=0;orthogonalLoop=1;jettySize=auto;html=1;startArrow=classic;startFill=1;" edge="1" parent="1" source="HQsCND91h7AvUW79KuMm-86" target="HQsCND91h7AvUW79KuMm-7">
          <mxGeometry relative="1" as="geometry" />
        </mxCell>
        <mxCell id="HQsCND91h7AvUW79KuMm-86" value="Payment processor" style="rounded=0;whiteSpace=wrap;html=1;" vertex="1" parent="1">
          <mxGeometry x="670" y="-40" width="120" height="60" as="geometry" />
        </mxCell>
        <mxCell id="HQsCND91h7AvUW79KuMm-89" value="Payment processor" style="rounded=0;whiteSpace=wrap;html=1;" vertex="1" parent="1">
          <mxGeometry x="50" y="-50" width="120" height="60" as="geometry" />
        </mxCell>
        <mxCell id="q_6GjNC77hbqpQ7vRztW-3" style="edgeStyle=orthogonalEdgeStyle;rounded=0;orthogonalLoop=1;jettySize=auto;html=1;entryX=1;entryY=0.5;entryDx=0;entryDy=0;" edge="1" parent="1" source="q_6GjNC77hbqpQ7vRztW-1" target="HQsCND91h7AvUW79KuMm-60">
          <mxGeometry relative="1" as="geometry">
            <Array as="points">
              <mxPoint x="-20" y="590" />
              <mxPoint x="-20" y="590" />
            </Array>
          </mxGeometry>
        </mxCell>
        <mxCell id="q_6GjNC77hbqpQ7vRztW-1" value="Payment processor" style="rounded=0;whiteSpace=wrap;html=1;" vertex="1" parent="1">
          <mxGeometry y="560" width="120" height="60" as="geometry" />
        </mxCell>
        <mxCell id="q_6GjNC77hbqpQ7vRztW-7" style="edgeStyle=orthogonalEdgeStyle;rounded=0;orthogonalLoop=1;jettySize=auto;html=1;entryX=0;entryY=0.5;entryDx=0;entryDy=0;startArrow=none;startFill=0;" edge="1" parent="1" source="q_6GjNC77hbqpQ7vRztW-4" target="q_6GjNC77hbqpQ7vRztW-5">
          <mxGeometry relative="1" as="geometry" />
        </mxCell>
        <mxCell id="q_6GjNC77hbqpQ7vRztW-4" value="Fraudulent amount for reimbursements from insurance" style="rounded=1;whiteSpace=wrap;html=1;absoluteArcSize=1;arcSize=14;strokeWidth=2;" vertex="1" parent="1">
          <mxGeometry x="-610" y="310" width="160" height="100" as="geometry" />
        </mxCell>
        <mxCell id="q_6GjNC77hbqpQ7vRztW-6" style="edgeStyle=orthogonalEdgeStyle;rounded=0;orthogonalLoop=1;jettySize=auto;html=1;entryX=0.5;entryY=0;entryDx=0;entryDy=0;startArrow=none;startFill=0;" edge="1" parent="1" source="q_6GjNC77hbqpQ7vRztW-5" target="HQsCND91h7AvUW79KuMm-31">
          <mxGeometry relative="1" as="geometry" />
        </mxCell>
        <mxCell id="q_6GjNC77hbqpQ7vRztW-5" value="System cash reserve" style="rounded=1;whiteSpace=wrap;html=1;absoluteArcSize=1;arcSize=14;strokeWidth=2;" vertex="1" parent="1">
          <mxGeometry x="-420" y="310" width="100" height="100" as="geometry" />
        </mxCell>
        <mxCell id="q_6GjNC77hbqpQ7vRztW-8" value="Cash Flow Peril Does Not Occur" style="text;html=1;strokeColor=none;fillColor=none;align=center;verticalAlign=middle;whiteSpace=wrap;rounded=0;" vertex="1" parent="1">
          <mxGeometry x="325" y="-110" width="60" height="30" as="geometry" />
        </mxCell>
        <mxCell id="q_6GjNC77hbqpQ7vRztW-10" style="edgeStyle=orthogonalEdgeStyle;rounded=0;orthogonalLoop=1;jettySize=auto;html=1;startArrow=none;startFill=0;exitX=0.5;exitY=1;exitDx=0;exitDy=0;" edge="1" parent="1" source="q_6GjNC77hbqpQ7vRztW-12" target="q_6GjNC77hbqpQ7vRztW-5">
          <mxGeometry relative="1" as="geometry">
            <mxPoint x="-380" y="230" as="sourcePoint" />
          </mxGeometry>
        </mxCell>
        <mxCell id="q_6GjNC77hbqpQ7vRztW-16" style="edgeStyle=orthogonalEdgeStyle;rounded=0;orthogonalLoop=1;jettySize=auto;html=1;entryX=0.5;entryY=0;entryDx=0;entryDy=0;startArrow=none;startFill=0;" edge="1" parent="1" source="q_6GjNC77hbqpQ7vRztW-11" target="q_6GjNC77hbqpQ7vRztW-17">
          <mxGeometry relative="1" as="geometry" />
        </mxCell>
        <mxCell id="q_6GjNC77hbqpQ7vRztW-11" value="&amp;nbsp;Insurance policy payments&amp;nbsp;" style="rounded=1;whiteSpace=wrap;html=1;absoluteArcSize=1;arcSize=14;strokeWidth=2;" vertex="1" parent="1">
          <mxGeometry x="-570" y="130" width="100" height="100" as="geometry" />
        </mxCell>
        <mxCell id="q_6GjNC77hbqpQ7vRztW-15" style="edgeStyle=orthogonalEdgeStyle;rounded=0;orthogonalLoop=1;jettySize=auto;html=1;entryX=1;entryY=0.5;entryDx=0;entryDy=0;startArrow=none;startFill=0;" edge="1" parent="1" source="q_6GjNC77hbqpQ7vRztW-12" target="q_6GjNC77hbqpQ7vRztW-11">
          <mxGeometry relative="1" as="geometry" />
        </mxCell>
        <mxCell id="q_6GjNC77hbqpQ7vRztW-12" value="System &amp;nbsp;account value" style="rounded=1;whiteSpace=wrap;html=1;absoluteArcSize=1;arcSize=14;strokeWidth=2;" vertex="1" parent="1">
          <mxGeometry x="-420" y="130" width="100" height="100" as="geometry" />
        </mxCell>
        <mxCell id="q_6GjNC77hbqpQ7vRztW-14" style="edgeStyle=orthogonalEdgeStyle;rounded=0;orthogonalLoop=1;jettySize=auto;html=1;entryX=0.5;entryY=0;entryDx=0;entryDy=0;startArrow=none;startFill=0;" edge="1" parent="1" source="q_6GjNC77hbqpQ7vRztW-13" target="q_6GjNC77hbqpQ7vRztW-12">
          <mxGeometry relative="1" as="geometry" />
        </mxCell>
        <mxCell id="q_6GjNC77hbqpQ7vRztW-13" value="Platform user fees &amp;nbsp;" style="rounded=1;whiteSpace=wrap;html=1;absoluteArcSize=1;arcSize=14;strokeWidth=2;" vertex="1" parent="1">
          <mxGeometry x="-420" y="-15" width="100" height="100" as="geometry" />
        </mxCell>
        <mxCell id="q_6GjNC77hbqpQ7vRztW-18" style="edgeStyle=orthogonalEdgeStyle;rounded=0;orthogonalLoop=1;jettySize=auto;html=1;entryX=0;entryY=0.5;entryDx=0;entryDy=0;startArrow=none;startFill=0;" edge="1" parent="1" source="q_6GjNC77hbqpQ7vRztW-17" target="q_6GjNC77hbqpQ7vRztW-4">
          <mxGeometry relative="1" as="geometry" />
        </mxCell>
        <mxCell id="q_6GjNC77hbqpQ7vRztW-17" value="&amp;nbsp;Outside Insurance" style="rounded=1;whiteSpace=wrap;html=1;absoluteArcSize=1;arcSize=14;strokeWidth=2;" vertex="1" parent="1">
          <mxGeometry x="-750" y="310" width="100" height="100" as="geometry" />
        </mxCell>
        <mxCell id="q_6GjNC77hbqpQ7vRztW-20" value="" style="edgeStyle=orthogonalEdgeStyle;rounded=0;orthogonalLoop=1;jettySize=auto;html=1;startArrow=none;startFill=0;" edge="1" parent="1" source="q_6GjNC77hbqpQ7vRztW-19" target="q_6GjNC77hbqpQ7vRztW-17">
          <mxGeometry relative="1" as="geometry" />
        </mxCell>
        <mxCell id="q_6GjNC77hbqpQ7vRztW-19" value="Claim generated by the system" style="rounded=1;whiteSpace=wrap;html=1;absoluteArcSize=1;arcSize=14;strokeWidth=2;" vertex="1" parent="1">
          <mxGeometry x="-750" y="450" width="100" height="100" as="geometry" />
        </mxCell>
        <mxCell id="q_6GjNC77hbqpQ7vRztW-22" style="edgeStyle=orthogonalEdgeStyle;rounded=0;orthogonalLoop=1;jettySize=auto;html=1;entryX=1;entryY=0.5;entryDx=0;entryDy=0;startArrow=none;startFill=0;" edge="1" parent="1" source="q_6GjNC77hbqpQ7vRztW-21" target="q_6GjNC77hbqpQ7vRztW-19">
          <mxGeometry relative="1" as="geometry" />
        </mxCell>
        <mxCell id="q_6GjNC77hbqpQ7vRztW-21" value="Fraudulent policy claim" style="rounded=1;whiteSpace=wrap;html=1;absoluteArcSize=1;arcSize=14;strokeWidth=2;" vertex="1" parent="1">
          <mxGeometry x="-570" y="450" width="100" height="100" as="geometry" />
        </mxCell>
        <mxCell id="i3Vv7ig0gQl0ONpNajDb-3" style="edgeStyle=orthogonalEdgeStyle;rounded=0;orthogonalLoop=1;jettySize=auto;html=1;entryX=0.5;entryY=1;entryDx=0;entryDy=0;" edge="1" parent="1" source="mV3ph0aQkJncVPJ9E7mC-1" target="HQsCND91h7AvUW79KuMm-15">
          <mxGeometry relative="1" as="geometry" />
        </mxCell>
        <mxCell id="mV3ph0aQkJncVPJ9E7mC-1" value="Premium amount in escrow" style="rounded=0;whiteSpace=wrap;html=1;" vertex="1" parent="1">
          <mxGeometry x="-235" y="330" width="160" height="80" as="geometry" />
        </mxCell>
      </root>
    </mxGraphModel>
  </diagram>
</mxfile>
